solid freeSurface
facet normal -0 0 1
 outer loop
  vertex 9.66 3.500001 1.540001
  vertex 9.66 4.500001 1.540001
  vertex 4.16 3.840001 1.540001
 endloop
endfacet
facet normal -0 0 1
 outer loop
  vertex 4.16 3.840001 1.540001
  vertex 9.66 4.500001 1.540001
  vertex 4.16 4.160001 1.540001
 endloop
endfacet
facet normal -0 0 1
 outer loop
  vertex 4.16 3.840001 1.540001
  vertex 4.16 4.160001 1.540001
  vertex 3.3484242 4.0800676 1.540001
 endloop
endfacet
facet normal 0 0 1
 outer loop
  vertex 9.66 3.500001 1.540001
  vertex 24.66 3.500001 1.540001
  vertex 9.66 4.500001 1.540001
 endloop
endfacet
facet normal 0 0 1
 outer loop
  vertex 9.66 4.500001 1.540001
  vertex 24.66 3.500001 1.540001
  vertex 24.66 4.500001 1.540001
 endloop
endfacet
facet normal -0 0 1
 outer loop
  vertex 4.16 3.840001 1.540001
  vertex 3.3484242 4.0800676 1.540001
  vertex 3.3055196 3.743724 1.540001
 endloop
endfacet
facet normal -0 0 1
 outer loop
  vertex 3.3055196 3.743724 1.540001
  vertex 3.3484242 4.0800676 1.540001
  vertex 2.568037 3.84334 1.540001
 endloop
endfacet
facet normal -0 0 1
 outer loop
  vertex 3.3055196 3.743724 1.540001
  vertex 2.568037 3.84334 1.540001
  vertex 2.4938865 3.4597216 1.540001
 endloop
endfacet
facet normal -0 0 1
 outer loop
  vertex 2.4938865 3.4597216 1.540001
  vertex 2.568037 3.84334 1.540001
  vertex 1.8488278 3.4589145 1.540001
 endloop
endfacet
facet normal 0 0 1
 outer loop
  vertex 2.4938865 3.4597216 1.540001
  vertex 1.8488278 3.4589145 1.540001
  vertex 1.7657992 3.002234 1.540001
 endloop
endfacet
facet normal -0 0 1
 outer loop
  vertex 1.7657992 3.002234 1.540001
  vertex 1.8488278 3.4589145 1.540001
  vertex 1.2184358 2.9415653 1.540001
 endloop
endfacet
facet normal 0 0 1
 outer loop
  vertex 1.7657992 3.002234 1.540001
  vertex 1.2184358 2.9415653 1.540001
  vertex 1.157767 2.3942018 1.540001
 endloop
endfacet
facet normal -0 0 1
 outer loop
  vertex 1.157767 2.3942018 1.540001
  vertex 1.2184358 2.9415653 1.540001
  vertex 0.7010864 2.3111732 1.540001
 endloop
endfacet
facet normal 0 0 1
 outer loop
  vertex 1.157767 2.3942018 1.540001
  vertex 0.7010864 2.3111732 1.540001
  vertex 0.70027953 1.6661146 1.540001
 endloop
endfacet
facet normal -0 0 1
 outer loop
  vertex 0.70027953 1.6661146 1.540001
  vertex 0.7010864 2.3111732 1.540001
  vertex 0.31666115 1.5919641 1.540001
 endloop
endfacet
facet normal 0 -0 1
 outer loop
  vertex 0.70027953 1.6661146 1.540001
  vertex 0.31666115 1.5919641 1.540001
  vertex 0.4162768 0.8544814 1.540001
 endloop
endfacet
facet normal -0 0 1
 outer loop
  vertex 0.4162768 0.8544814 1.540001
  vertex 0.31666115 1.5919641 1.540001
  vertex 0.07993323 0.8115767 1.540001
 endloop
endfacet
facet normal 0 -0 1
 outer loop
  vertex 0.4162768 0.8544814 1.540001
  vertex 0.07993323 0.8115767 1.540001
  vertex 0.32 1e-06 1.540001
 endloop
endfacet
facet normal -0 0 1
 outer loop
  vertex 0.32 1e-06 1.540001
  vertex 0.07993323 0.8115767 1.540001
  vertex 3.5527137e-15 1e-06 1.540001
 endloop
endfacet
endsolid freeSurface
