solid freeSurface
facet normal -0 0 1
 outer loop
  vertex 7.227625 2.0980773 1.54
  vertex 7.227625 3.0980773 1.54
  vertex 1.727625 2.4380772 1.54
 endloop
endfacet
facet normal -0 0 1
 outer loop
  vertex 1.727625 2.4380772 1.54
  vertex 7.227625 3.0980773 1.54
  vertex 1.5873712 2.749407 1.54
 endloop
endfacet
facet normal -0 0 1
 outer loop
  vertex 1.727625 2.4380772 1.54
  vertex 1.5873712 2.749407 1.54
  vertex 1e-06 1e-06 1.54
 endloop
endfacet
facet normal 0 0 1
 outer loop
  vertex 7.227625 2.0980773 1.54
  vertex 22.227625 2.0980773 1.54
  vertex 7.227625 3.0980773 1.54
 endloop
endfacet
facet normal 0 0 1
 outer loop
  vertex 7.227625 3.0980773 1.54
  vertex 22.227625 2.0980773 1.54
  vertex 22.227625 3.0980773 1.54
 endloop
endfacet
facet normal 0 0 1
 outer loop
  vertex 1e-06 1e-06 1.54
  vertex 0.320001 1e-06 1.54
  vertex 1.727625 2.4380772 1.54
 endloop
endfacet
endsolid freeSurface
