solid leftSide
facet normal -0.08715559 0.9961948 0
 outer loop
  vertex 6.160001 6.160001 1.540001
  vertex 6.160001 6.160001 1.000001
  vertex 5.090328 6.0664167 1.540001
 endloop
endfacet
facet normal -0.08715559 0.9961948 0
 outer loop
  vertex 5.090328 6.0664167 1.540001
  vertex 6.160001 6.160001 1.000001
  vertex 5.090328 6.0664167 1.000001
 endloop
endfacet
facet normal -0.2588191 0.9659259 0
 outer loop
  vertex 5.090328 6.0664167 1.540001
  vertex 5.090328 6.0664167 1.000001
  vertex 4.053157 5.7885075 1.540001
 endloop
endfacet
facet normal -0.2588191 0.9659259 0
 outer loop
  vertex 4.053157 5.7885075 1.540001
  vertex 5.090328 6.0664167 1.000001
  vertex 4.053157 5.7885075 1.000001
 endloop
endfacet
facet normal -0.42261842 0.9063077 0
 outer loop
  vertex 4.053157 5.7885075 1.540001
  vertex 4.053157 5.7885075 1.000001
  vertex 3.080001 5.3347173 1.540001
 endloop
endfacet
facet normal -0.42261842 0.9063077 0
 outer loop
  vertex 3.080001 5.3347173 1.540001
  vertex 4.053157 5.7885075 1.000001
  vertex 3.080001 5.3347173 1.000001
 endloop
endfacet
facet normal -0.5735763 0.81915224 0
 outer loop
  vertex 3.080001 5.3347173 1.540001
  vertex 3.080001 5.3347173 1.000001
  vertex 2.2004294 4.718835 1.540001
 endloop
endfacet
facet normal -0.5735763 0.81915224 0
 outer loop
  vertex 2.2004294 4.718835 1.540001
  vertex 3.080001 5.3347173 1.000001
  vertex 2.2004294 4.718835 1.000001
 endloop
endfacet
facet normal -0.7071067 0.7071068 0
 outer loop
  vertex 2.2004294 4.718835 1.540001
  vertex 2.2004294 4.718835 1.000001
  vertex 1.4411672 3.9595728 1.540001
 endloop
endfacet
facet normal -0.7071067 0.7071068 0
 outer loop
  vertex 1.4411672 3.9595728 1.540001
  vertex 2.2004294 4.718835 1.000001
  vertex 1.4411672 3.9595728 1.000001
 endloop
endfacet
facet normal -0.81915206 0.5735764 0
 outer loop
  vertex 1.4411672 3.9595728 1.540001
  vertex 1.4411672 3.9595728 1.000001
  vertex 0.82528454 3.080001 1.540001
 endloop
endfacet
facet normal -0.81915206 0.5735764 0
 outer loop
  vertex 0.82528454 3.080001 1.540001
  vertex 1.4411672 3.9595728 1.000001
  vertex 0.82528454 3.080001 1.000001
 endloop
endfacet
facet normal -0.9063078 0.4226183 0
 outer loop
  vertex 0.82528454 3.080001 1.540001
  vertex 0.82528454 3.080001 1.000001
  vertex 0.37149444 2.1068451 1.540001
 endloop
endfacet
facet normal -0.9063078 0.4226183 0
 outer loop
  vertex 0.37149444 2.1068451 1.540001
  vertex 0.82528454 3.080001 1.000001
  vertex 0.37149444 2.1068451 1.000001
 endloop
endfacet
facet normal -0.9659259 0.25881904 0
 outer loop
  vertex 0.37149444 2.1068451 1.540001
  vertex 0.37149444 2.1068451 1.000001
  vertex 0.09358524 1.0696738 1.540001
 endloop
endfacet
facet normal -0.9659259 0.25881904 0
 outer loop
  vertex 0.09358524 1.0696738 1.540001
  vertex 0.37149444 2.1068451 1.000001
  vertex 0.09358524 1.0696738 1.000001
 endloop
endfacet
facet normal -0.99619466 0.08715573 0
 outer loop
  vertex 0.09358524 1.0696738 1.540001
  vertex 0.09358524 1.0696738 1.000001
  vertex 1e-06 1e-06 1.540001
 endloop
endfacet
facet normal -0.99619466 0.08715573 0
 outer loop
  vertex 1e-06 1e-06 1.540001
  vertex 0.09358524 1.0696738 1.000001
  vertex 1e-06 1e-06 1.000001
 endloop
endfacet
facet normal 0 1 -0
 outer loop
  vertex 11.660001 6.500001 1.540001
  vertex 26.660002 6.500001 1.540001
  vertex 11.660001 6.500001 0.058824528
 endloop
endfacet
facet normal 0 1 -0
 outer loop
  vertex 11.660001 6.500001 0.058824528
  vertex 26.660002 6.500001 1.540001
  vertex 26.660002 6.500001 1e-06
 endloop
endfacet
facet normal 0 1 -0
 outer loop
  vertex 11.660001 6.500001 0.058824528
  vertex 26.660002 6.500001 1e-06
  vertex 11.960001 6.500001 1e-06
 endloop
endfacet
facet normal -0.061700728 0.99809474 0
 outer loop
  vertex 6.160001 6.160001 1.000001
  vertex 6.160001 6.160001 1.540001
  vertex 6.860001 6.203274 1.000001
 endloop
endfacet
facet normal -0.06170043 0.99809474 3.8559028e-07
 outer loop
  vertex 6.860001 6.203274 1.000001
  vertex 6.160001 6.160001 1.540001
  vertex 11.660001 6.500001 1.540001
 endloop
endfacet
facet normal -0.061700385 0.99809474 0
 outer loop
  vertex 6.860001 6.203274 1.000001
  vertex 11.660001 6.500001 1.540001
  vertex 11.660001 6.500001 0.058824528
 endloop
endfacet
endsolid leftSide
