solid Volume
facet normal 0.99619466 -0.08715572 0
 outer loop
  vertex 0.320001 1e-06 1.540001
  vertex 0.320001 1e-06 1.000001
  vertex 0.4087237 1.0141064 1.540001
 endloop
endfacet
facet normal 0.99619466 -0.08715572 0
 outer loop
  vertex 0.4087237 1.0141064 1.540001
  vertex 0.320001 1e-06 1.000001
  vertex 0.4087237 1.0141064 1.000001
 endloop
endfacet
facet normal 0.9659258 -0.25881907 0
 outer loop
  vertex 0.4087237 1.0141064 1.540001
  vertex 0.4087237 1.0141064 1.000001
  vertex 0.6721961 1.9973986 1.000001
 endloop
endfacet
facet normal 0.9659258 -0.25881907 0
 outer loop
  vertex 0.4087237 1.0141064 1.540001
  vertex 0.6721961 1.9973986 1.000001
  vertex 0.6721961 1.9973986 1.540001
 endloop
endfacet
facet normal 0.90630776 -0.42261827 0
 outer loop
  vertex 0.6721961 1.9973986 1.540001
  vertex 0.6721961 1.9973986 1.000001
  vertex 1.1024127 2.920001 1.000001
 endloop
endfacet
facet normal 0.90630776 -0.42261827 0
 outer loop
  vertex 0.6721961 1.9973986 1.540001
  vertex 1.1024127 2.920001 1.000001
  vertex 1.1024127 2.920001 1.540001
 endloop
endfacet
facet normal 0.8191521 -0.5735764 0
 outer loop
  vertex 1.1024127 2.920001 1.540001
  vertex 1.1024127 2.920001 1.000001
  vertex 1.6863015 3.7538807 1.000001
 endloop
endfacet
facet normal 0.8191521 -0.5735764 0
 outer loop
  vertex 1.1024127 2.920001 1.540001
  vertex 1.6863015 3.7538807 1.000001
  vertex 1.6863015 3.7538807 1.540001
 endloop
endfacet
facet normal 0.70710677 -0.70710677 0
 outer loop
  vertex 1.6863015 3.7538807 1.540001
  vertex 1.6863015 3.7538807 1.000001
  vertex 2.4061213 4.4737005 1.000001
 endloop
endfacet
facet normal 0.70710677 -0.70710677 0
 outer loop
  vertex 1.6863015 3.7538807 1.540001
  vertex 2.4061213 4.4737005 1.000001
  vertex 2.4061213 4.4737005 1.540001
 endloop
endfacet
facet normal 0.57357657 -0.81915206 0
 outer loop
  vertex 2.4061213 4.4737005 1.540001
  vertex 2.4061213 4.4737005 1.000001
  vertex 3.240001 5.0575895 1.000001
 endloop
endfacet
facet normal 0.57357657 -0.81915206 0
 outer loop
  vertex 2.4061213 4.4737005 1.540001
  vertex 3.240001 5.0575895 1.000001
  vertex 3.240001 5.0575895 1.540001
 endloop
endfacet
facet normal 0.42261803 -0.9063079 0
 outer loop
  vertex 3.240001 5.0575895 1.540001
  vertex 3.240001 5.0575895 1.000001
  vertex 4.1626034 5.487806 1.000001
 endloop
endfacet
facet normal 0.42261803 -0.9063079 0
 outer loop
  vertex 3.240001 5.0575895 1.540001
  vertex 4.1626034 5.487806 1.000001
  vertex 4.1626034 5.487806 1.540001
 endloop
endfacet
facet normal 0.25881925 -0.9659257 0
 outer loop
  vertex 4.1626034 5.487806 1.540001
  vertex 4.1626034 5.487806 1.000001
  vertex 5.1458955 5.7512784 1.000001
 endloop
endfacet
facet normal 0.25881925 -0.9659257 0
 outer loop
  vertex 4.1626034 5.487806 1.540001
  vertex 5.1458955 5.7512784 1.000001
  vertex 5.1458955 5.7512784 1.540001
 endloop
endfacet
facet normal 0.08715573 -0.99619466 0
 outer loop
  vertex 5.1458955 5.7512784 1.540001
  vertex 5.1458955 5.7512784 1.000001
  vertex 6.160001 5.840001 1.540001
 endloop
endfacet
facet normal 0.08715573 -0.99619466 0
 outer loop
  vertex 6.160001 5.840001 1.540001
  vertex 5.1458955 5.7512784 1.000001
  vertex 6.160001 5.840001 1.000001
 endloop
endfacet
facet normal -0 -1 -0
 outer loop
  vertex 1e-06 1e-06 1.000001
  vertex 0.320001 1e-06 1.000001
  vertex 1e-06 1e-06 1.540001
 endloop
endfacet
facet normal -0 -1 -0
 outer loop
  vertex 1e-06 1e-06 1.540001
  vertex 0.320001 1e-06 1.000001
  vertex 0.320001 1e-06 1.540001
 endloop
endfacet
facet normal -0.08715559 0.9961948 0
 outer loop
  vertex 6.160001 6.160001 1.540001
  vertex 6.160001 6.160001 1.000001
  vertex 5.090328 6.0664167 1.540001
 endloop
endfacet
facet normal -0.08715559 0.9961948 0
 outer loop
  vertex 5.090328 6.0664167 1.540001
  vertex 6.160001 6.160001 1.000001
  vertex 5.090328 6.0664167 1.000001
 endloop
endfacet
facet normal -0.2588191 0.9659259 0
 outer loop
  vertex 5.090328 6.0664167 1.540001
  vertex 5.090328 6.0664167 1.000001
  vertex 4.053157 5.7885075 1.540001
 endloop
endfacet
facet normal -0.2588191 0.9659259 0
 outer loop
  vertex 4.053157 5.7885075 1.540001
  vertex 5.090328 6.0664167 1.000001
  vertex 4.053157 5.7885075 1.000001
 endloop
endfacet
facet normal -0.42261842 0.9063077 0
 outer loop
  vertex 4.053157 5.7885075 1.540001
  vertex 4.053157 5.7885075 1.000001
  vertex 3.080001 5.3347173 1.540001
 endloop
endfacet
facet normal -0.42261842 0.9063077 0
 outer loop
  vertex 3.080001 5.3347173 1.540001
  vertex 4.053157 5.7885075 1.000001
  vertex 3.080001 5.3347173 1.000001
 endloop
endfacet
facet normal -0.5735763 0.81915224 0
 outer loop
  vertex 3.080001 5.3347173 1.540001
  vertex 3.080001 5.3347173 1.000001
  vertex 2.2004294 4.718835 1.540001
 endloop
endfacet
facet normal -0.5735763 0.81915224 0
 outer loop
  vertex 2.2004294 4.718835 1.540001
  vertex 3.080001 5.3347173 1.000001
  vertex 2.2004294 4.718835 1.000001
 endloop
endfacet
facet normal -0.7071067 0.7071068 0
 outer loop
  vertex 2.2004294 4.718835 1.540001
  vertex 2.2004294 4.718835 1.000001
  vertex 1.4411672 3.9595728 1.540001
 endloop
endfacet
facet normal -0.7071067 0.7071068 0
 outer loop
  vertex 1.4411672 3.9595728 1.540001
  vertex 2.2004294 4.718835 1.000001
  vertex 1.4411672 3.9595728 1.000001
 endloop
endfacet
facet normal -0.81915206 0.5735764 0
 outer loop
  vertex 1.4411672 3.9595728 1.540001
  vertex 1.4411672 3.9595728 1.000001
  vertex 0.82528454 3.080001 1.540001
 endloop
endfacet
facet normal -0.81915206 0.5735764 0
 outer loop
  vertex 0.82528454 3.080001 1.540001
  vertex 1.4411672 3.9595728 1.000001
  vertex 0.82528454 3.080001 1.000001
 endloop
endfacet
facet normal -0.9063078 0.4226183 0
 outer loop
  vertex 0.82528454 3.080001 1.540001
  vertex 0.82528454 3.080001 1.000001
  vertex 0.37149444 2.1068451 1.540001
 endloop
endfacet
facet normal -0.9063078 0.4226183 0
 outer loop
  vertex 0.37149444 2.1068451 1.540001
  vertex 0.82528454 3.080001 1.000001
  vertex 0.37149444 2.1068451 1.000001
 endloop
endfacet
facet normal -0.9659259 0.25881904 0
 outer loop
  vertex 0.37149444 2.1068451 1.540001
  vertex 0.37149444 2.1068451 1.000001
  vertex 0.09358524 1.0696738 1.540001
 endloop
endfacet
facet normal -0.9659259 0.25881904 0
 outer loop
  vertex 0.09358524 1.0696738 1.540001
  vertex 0.37149444 2.1068451 1.000001
  vertex 0.09358524 1.0696738 1.000001
 endloop
endfacet
facet normal -0.99619466 0.08715573 0
 outer loop
  vertex 0.09358524 1.0696738 1.540001
  vertex 0.09358524 1.0696738 1.000001
  vertex 1e-06 1e-06 1.540001
 endloop
endfacet
facet normal -0.99619466 0.08715573 0
 outer loop
  vertex 1e-06 1e-06 1.540001
  vertex 0.09358524 1.0696738 1.000001
  vertex 1e-06 1e-06 1.000001
 endloop
endfacet
facet normal 0 0 -1
 outer loop
  vertex 6.860001 6.203274 1.000001
  vertex 6.860001 5.796728 1.000001
  vertex 6.160001 6.160001 1.000001
 endloop
endfacet
facet normal 0 0 -1
 outer loop
  vertex 6.160001 6.160001 1.000001
  vertex 6.860001 5.796728 1.000001
  vertex 6.160001 5.840001 1.000001
 endloop
endfacet
facet normal 0 0 -1
 outer loop
  vertex 6.160001 6.160001 1.000001
  vertex 6.160001 5.840001 1.000001
  vertex 5.090328 6.0664167 1.000001
 endloop
endfacet
facet normal 0 0 -1
 outer loop
  vertex 5.090328 6.0664167 1.000001
  vertex 6.160001 5.840001 1.000001
  vertex 5.1458955 5.7512784 1.000001
 endloop
endfacet
facet normal 0 0 -1
 outer loop
  vertex 5.090328 6.0664167 1.000001
  vertex 5.1458955 5.7512784 1.000001
  vertex 4.053157 5.7885075 1.000001
 endloop
endfacet
facet normal 0 0 -1
 outer loop
  vertex 4.053157 5.7885075 1.000001
  vertex 5.1458955 5.7512784 1.000001
  vertex 4.1626034 5.487806 1.000001
 endloop
endfacet
facet normal 0 0 -1
 outer loop
  vertex 4.053157 5.7885075 1.000001
  vertex 4.1626034 5.487806 1.000001
  vertex 3.080001 5.3347173 1.000001
 endloop
endfacet
facet normal -0 0 -1
 outer loop
  vertex 3.080001 5.3347173 1.000001
  vertex 4.1626034 5.487806 1.000001
  vertex 3.240001 5.0575895 1.000001
 endloop
endfacet
facet normal 0 0 -1
 outer loop
  vertex 3.080001 5.3347173 1.000001
  vertex 3.240001 5.0575895 1.000001
  vertex 2.2004294 4.718835 1.000001
 endloop
endfacet
facet normal -0 0 -1
 outer loop
  vertex 2.2004294 4.718835 1.000001
  vertex 3.240001 5.0575895 1.000001
  vertex 2.4061213 4.4737005 1.000001
 endloop
endfacet
facet normal 0 0 -1
 outer loop
  vertex 2.2004294 4.718835 1.000001
  vertex 2.4061213 4.4737005 1.000001
  vertex 1.4411672 3.9595728 1.000001
 endloop
endfacet
facet normal -0 0 -1
 outer loop
  vertex 1.4411672 3.9595728 1.000001
  vertex 2.4061213 4.4737005 1.000001
  vertex 1.6863015 3.7538807 1.000001
 endloop
endfacet
facet normal 0 0 -1
 outer loop
  vertex 1.4411672 3.9595728 1.000001
  vertex 1.6863015 3.7538807 1.000001
  vertex 0.82528454 3.080001 1.000001
 endloop
endfacet
facet normal -0 0 -1
 outer loop
  vertex 0.82528454 3.080001 1.000001
  vertex 1.6863015 3.7538807 1.000001
  vertex 1.1024127 2.920001 1.000001
 endloop
endfacet
facet normal 0 0 -1
 outer loop
  vertex 0.82528454 3.080001 1.000001
  vertex 1.1024127 2.920001 1.000001
  vertex 0.37149444 2.1068451 1.000001
 endloop
endfacet
facet normal -0 0 -1
 outer loop
  vertex 0.37149444 2.1068451 1.000001
  vertex 1.1024127 2.920001 1.000001
  vertex 0.6721961 1.9973986 1.000001
 endloop
endfacet
facet normal 0 0 -1
 outer loop
  vertex 0.37149444 2.1068451 1.000001
  vertex 0.6721961 1.9973986 1.000001
  vertex 0.09358524 1.0696738 1.000001
 endloop
endfacet
facet normal -0 0 -1
 outer loop
  vertex 0.09358524 1.0696738 1.000001
  vertex 0.6721961 1.9973986 1.000001
  vertex 0.4087237 1.0141064 1.000001
 endloop
endfacet
facet normal 0 0 -1
 outer loop
  vertex 0.09358524 1.0696738 1.000001
  vertex 0.4087237 1.0141064 1.000001
  vertex 1e-06 1e-06 1.000001
 endloop
endfacet
facet normal -0 0 -1
 outer loop
  vertex 1e-06 1e-06 1.000001
  vertex 0.4087237 1.0141064 1.000001
  vertex 0.320001 1e-06 1.000001
 endloop
endfacet
facet normal -0.19241434 0 -0.98131377
 outer loop
  vertex 11.960001 6.500001 1e-06
  vertex 11.960001 5.500001 1e-06
  vertex 11.660001 6.500001 0.058824528
 endloop
endfacet
facet normal -0.19241434 0 -0.98131377
 outer loop
  vertex 11.660001 6.500001 0.058824528
  vertex 11.960001 5.500001 1e-06
  vertex 11.660001 5.500001 0.058824528
 endloop
endfacet
facet normal -0.19241446 0 -0.9813137
 outer loop
  vertex 11.660001 6.500001 0.058824528
  vertex 11.660001 5.500001 0.058824528
  vertex 6.860001 6.203274 1.000001
 endloop
endfacet
facet normal -0.19241448 0 -0.98131377
 outer loop
  vertex 6.860001 6.203274 1.000001
  vertex 11.660001 5.500001 0.058824528
  vertex 6.860001 5.796728 1.000001
 endloop
endfacet
facet normal -0.061700385 -0.99809474 -0
 outer loop
  vertex 11.660001 5.500001 0.058824528
  vertex 11.660001 5.500001 1.540001
  vertex 6.860001 5.796728 1.000001
 endloop
endfacet
facet normal -0.06170043 -0.99809474 4.006133e-07
 outer loop
  vertex 6.860001 5.796728 1.000001
  vertex 11.660001 5.500001 1.540001
  vertex 6.160001 5.840001 1.540001
 endloop
endfacet
facet normal -0.061700728 -0.99809474 0
 outer loop
  vertex 6.860001 5.796728 1.000001
  vertex 6.160001 5.840001 1.540001
  vertex 6.160001 5.840001 1.000001
 endloop
endfacet
facet normal 0 0 -1
 outer loop
  vertex 11.960001 6.500001 1e-06
  vertex 26.660002 6.500001 1e-06
  vertex 11.960001 5.500001 1e-06
 endloop
endfacet
facet normal -0 0 -1
 outer loop
  vertex 11.960001 5.500001 1e-06
  vertex 26.660002 6.500001 1e-06
  vertex 26.660002 5.500001 1e-06
 endloop
endfacet
facet normal -0 -1 0
 outer loop
  vertex 11.660001 5.500001 1.540001
  vertex 11.660001 5.500001 0.058824528
  vertex 26.660002 5.500001 1.540001
 endloop
endfacet
facet normal 0 -1 0
 outer loop
  vertex 26.660002 5.500001 1.540001
  vertex 11.660001 5.500001 0.058824528
  vertex 26.660002 5.500001 1e-06
 endloop
endfacet
facet normal 0 -1 0
 outer loop
  vertex 26.660002 5.500001 1e-06
  vertex 11.660001 5.500001 0.058824528
  vertex 11.960001 5.500001 1e-06
 endloop
endfacet
facet normal 1 0 -0
 outer loop
  vertex 26.660002 5.500001 1.540001
  vertex 26.660002 5.500001 1e-06
  vertex 26.660002 6.500001 1.540001
 endloop
endfacet
facet normal 1 0 -0
 outer loop
  vertex 26.660002 6.500001 1.540001
  vertex 26.660002 5.500001 1e-06
  vertex 26.660002 6.500001 1e-06
 endloop
endfacet
facet normal 0 1 -0
 outer loop
  vertex 11.660001 6.500001 1.540001
  vertex 26.660002 6.500001 1.540001
  vertex 11.660001 6.500001 0.058824528
 endloop
endfacet
facet normal 0 1 -0
 outer loop
  vertex 11.660001 6.500001 0.058824528
  vertex 26.660002 6.500001 1.540001
  vertex 26.660002 6.500001 1e-06
 endloop
endfacet
facet normal 0 1 -0
 outer loop
  vertex 11.660001 6.500001 0.058824528
  vertex 26.660002 6.500001 1e-06
  vertex 11.960001 6.500001 1e-06
 endloop
endfacet
facet normal -0.061700728 0.99809474 0
 outer loop
  vertex 6.160001 6.160001 1.000001
  vertex 6.160001 6.160001 1.540001
  vertex 6.860001 6.203274 1.000001
 endloop
endfacet
facet normal -0.06170043 0.99809474 3.8559028e-07
 outer loop
  vertex 6.860001 6.203274 1.000001
  vertex 6.160001 6.160001 1.540001
  vertex 11.660001 6.500001 1.540001
 endloop
endfacet
facet normal -0.061700385 0.99809474 0
 outer loop
  vertex 6.860001 6.203274 1.000001
  vertex 11.660001 6.500001 1.540001
  vertex 11.660001 6.500001 0.058824528
 endloop
endfacet
facet normal -0 0 1
 outer loop
  vertex 11.660001 5.500001 1.540001
  vertex 11.660001 6.500001 1.540001
  vertex 6.160001 5.840001 1.540001
 endloop
endfacet
facet normal -0 0 1
 outer loop
  vertex 6.160001 5.840001 1.540001
  vertex 11.660001 6.500001 1.540001
  vertex 6.160001 6.160001 1.540001
 endloop
endfacet
facet normal -0 0 1
 outer loop
  vertex 6.160001 5.840001 1.540001
  vertex 6.160001 6.160001 1.540001
  vertex 5.090328 6.0664167 1.540001
 endloop
endfacet
facet normal 0 0 1
 outer loop
  vertex 11.660001 5.500001 1.540001
  vertex 26.660002 5.500001 1.540001
  vertex 11.660001 6.500001 1.540001
 endloop
endfacet
facet normal 0 0 1
 outer loop
  vertex 11.660001 6.500001 1.540001
  vertex 26.660002 5.500001 1.540001
  vertex 26.660002 6.500001 1.540001
 endloop
endfacet
facet normal -0 -0 1
 outer loop
  vertex 6.160001 5.840001 1.540001
  vertex 5.090328 6.0664167 1.540001
  vertex 5.1458955 5.7512784 1.540001
 endloop
endfacet
facet normal -0 0 1
 outer loop
  vertex 5.1458955 5.7512784 1.540001
  vertex 5.090328 6.0664167 1.540001
  vertex 4.053157 5.7885075 1.540001
 endloop
endfacet
facet normal -0 -0 1
 outer loop
  vertex 5.1458955 5.7512784 1.540001
  vertex 4.053157 5.7885075 1.540001
  vertex 4.1626034 5.487806 1.540001
 endloop
endfacet
facet normal -0 0 1
 outer loop
  vertex 4.1626034 5.487806 1.540001
  vertex 4.053157 5.7885075 1.540001
  vertex 3.080001 5.3347173 1.540001
 endloop
endfacet
facet normal 0 -0 1
 outer loop
  vertex 4.1626034 5.487806 1.540001
  vertex 3.080001 5.3347173 1.540001
  vertex 3.240001 5.0575895 1.540001
 endloop
endfacet
facet normal -0 0 1
 outer loop
  vertex 3.240001 5.0575895 1.540001
  vertex 3.080001 5.3347173 1.540001
  vertex 2.2004294 4.718835 1.540001
 endloop
endfacet
facet normal 0 -0 1
 outer loop
  vertex 3.240001 5.0575895 1.540001
  vertex 2.2004294 4.718835 1.540001
  vertex 2.4061213 4.4737005 1.540001
 endloop
endfacet
facet normal -0 0 1
 outer loop
  vertex 2.4061213 4.4737005 1.540001
  vertex 2.2004294 4.718835 1.540001
  vertex 1.4411672 3.9595728 1.540001
 endloop
endfacet
facet normal 0 -0 1
 outer loop
  vertex 2.4061213 4.4737005 1.540001
  vertex 1.4411672 3.9595728 1.540001
  vertex 1.6863015 3.7538807 1.540001
 endloop
endfacet
facet normal -0 0 1
 outer loop
  vertex 1.6863015 3.7538807 1.540001
  vertex 1.4411672 3.9595728 1.540001
  vertex 0.82528454 3.080001 1.540001
 endloop
endfacet
facet normal 0 -0 1
 outer loop
  vertex 1.6863015 3.7538807 1.540001
  vertex 0.82528454 3.080001 1.540001
  vertex 1.1024127 2.920001 1.540001
 endloop
endfacet
facet normal -0 0 1
 outer loop
  vertex 1.1024127 2.920001 1.540001
  vertex 0.82528454 3.080001 1.540001
  vertex 0.37149444 2.1068451 1.540001
 endloop
endfacet
facet normal 0 -0 1
 outer loop
  vertex 1.1024127 2.920001 1.540001
  vertex 0.37149444 2.1068451 1.540001
  vertex 0.6721961 1.9973986 1.540001
 endloop
endfacet
facet normal -0 0 1
 outer loop
  vertex 0.6721961 1.9973986 1.540001
  vertex 0.37149444 2.1068451 1.540001
  vertex 0.09358524 1.0696738 1.540001
 endloop
endfacet
facet normal 0 -0 1
 outer loop
  vertex 0.6721961 1.9973986 1.540001
  vertex 0.09358524 1.0696738 1.540001
  vertex 0.4087237 1.0141064 1.540001
 endloop
endfacet
facet normal -0 0 1
 outer loop
  vertex 0.4087237 1.0141064 1.540001
  vertex 0.09358524 1.0696738 1.540001
  vertex 1e-06 1e-06 1.540001
 endloop
endfacet
facet normal 0 -0 1
 outer loop
  vertex 0.4087237 1.0141064 1.540001
  vertex 1e-06 1e-06 1.540001
  vertex 0.320001 1e-06 1.540001
 endloop
endfacet
endsolid Volume
