solid Volume
facet normal -1 0 -0
 outer loop
  vertex 1e-06 0.320001 1
  vertex 1e-06 1e-06 1
  vertex 1e-06 0.320001 1.54
 endloop
endfacet
facet normal -1 0 0
 outer loop
  vertex 1e-06 0.320001 1.54
  vertex 1e-06 1e-06 1
  vertex 1e-06 1e-06 1.54
 endloop
endfacet
facet normal -0.49999997 0.8660254 0
 outer loop
  vertex 2.5980773 1.820001 1
  vertex 1e-06 0.320001 1
  vertex 2.5980773 1.820001 1.54
 endloop
endfacet
facet normal -0.49999997 0.8660254 0
 outer loop
  vertex 2.5980773 1.820001 1.54
  vertex 1e-06 0.320001 1
  vertex 1e-06 0.320001 1.54
 endloop
endfacet
facet normal 0.49999997 -0.8660254 0
 outer loop
  vertex 1e-06 1e-06 1
  vertex 2.5980773 1.500001 1
  vertex 1e-06 1e-06 1.54
 endloop
endfacet
facet normal 0.49999997 -0.8660254 0
 outer loop
  vertex 1e-06 1e-06 1.54
  vertex 2.5980773 1.500001 1
  vertex 2.5980773 1.500001 1.54
 endloop
endfacet
facet normal 0 0 -1
 outer loop
  vertex 3.298077 1.8632737 1
  vertex 3.298077 1.4567282 1
  vertex 2.5980773 1.820001 1
 endloop
endfacet
facet normal 0 0 -1
 outer loop
  vertex 2.5980773 1.820001 1
  vertex 3.298077 1.4567282 1
  vertex 2.5980773 1.500001 1
 endloop
endfacet
facet normal 0 0 -1
 outer loop
  vertex 2.5980773 1.820001 1
  vertex 2.5980773 1.500001 1
  vertex 1e-06 0.320001 1
 endloop
endfacet
facet normal -0 0 -1
 outer loop
  vertex 1e-06 0.320001 1
  vertex 2.5980773 1.500001 1
  vertex 1e-06 1e-06 1
 endloop
endfacet
facet normal -0.19241434 0 -0.98131377
 outer loop
  vertex 8.398077 2.160001 2.7755576e-15
  vertex 8.398077 1.160001 2.7755576e-15
  vertex 8.098077 2.160001 0.05882353
 endloop
endfacet
facet normal -0.19241434 0 -0.98131377
 outer loop
  vertex 8.098077 2.160001 0.05882353
  vertex 8.398077 1.160001 2.7755576e-15
  vertex 8.098077 1.160001 0.05882353
 endloop
endfacet
facet normal -0.19241446 0 -0.9813137
 outer loop
  vertex 8.098077 2.160001 0.05882353
  vertex 8.098077 1.160001 0.05882353
  vertex 3.298077 1.8632737 1
 endloop
endfacet
facet normal -0.19241448 0 -0.98131377
 outer loop
  vertex 3.298077 1.8632737 1
  vertex 8.098077 1.160001 0.05882353
  vertex 3.298077 1.4567282 1
 endloop
endfacet
facet normal -0.06170038 -0.99809474 -0
 outer loop
  vertex 8.098077 1.160001 0.05882353
  vertex 8.098077 1.160001 1.54
  vertex 3.298077 1.4567282 1
 endloop
endfacet
facet normal -0.06170039 -0.99809474 4.006134e-08
 outer loop
  vertex 3.298077 1.4567282 1
  vertex 8.098077 1.160001 1.54
  vertex 2.5980773 1.500001 1.54
 endloop
endfacet
facet normal -0.06170043 -0.9980948 0
 outer loop
  vertex 3.298077 1.4567282 1
  vertex 2.5980773 1.500001 1.54
  vertex 2.5980773 1.500001 1
 endloop
endfacet
facet normal 0 0 -1
 outer loop
  vertex 8.398077 2.160001 2.7755576e-15
  vertex 23.098078 2.160001 2.7755576e-15
  vertex 8.398077 1.160001 2.7755576e-15
 endloop
endfacet
facet normal -0 0 -1
 outer loop
  vertex 8.398077 1.160001 2.7755576e-15
  vertex 23.098078 2.160001 2.7755576e-15
  vertex 23.098078 1.160001 2.7755576e-15
 endloop
endfacet
facet normal -0 -1 0
 outer loop
  vertex 8.098077 1.160001 1.54
  vertex 8.098077 1.160001 0.05882353
  vertex 23.098078 1.160001 1.54
 endloop
endfacet
facet normal 0 -1 0
 outer loop
  vertex 23.098078 1.160001 1.54
  vertex 8.098077 1.160001 0.05882353
  vertex 23.098078 1.160001 2.7755576e-15
 endloop
endfacet
facet normal 0 -1 0
 outer loop
  vertex 23.098078 1.160001 2.7755576e-15
  vertex 8.098077 1.160001 0.05882353
  vertex 8.398077 1.160001 2.7755576e-15
 endloop
endfacet
facet normal 1 0 -0
 outer loop
  vertex 23.098078 1.160001 1.54
  vertex 23.098078 1.160001 2.7755576e-15
  vertex 23.098078 2.160001 1.54
 endloop
endfacet
facet normal 1 0 -0
 outer loop
  vertex 23.098078 2.160001 1.54
  vertex 23.098078 1.160001 2.7755576e-15
  vertex 23.098078 2.160001 2.7755576e-15
 endloop
endfacet
facet normal 0 1 -0
 outer loop
  vertex 8.098077 2.160001 1.54
  vertex 23.098078 2.160001 1.54
  vertex 8.098077 2.160001 0.05882353
 endloop
endfacet
facet normal 0 1 -0
 outer loop
  vertex 8.098077 2.160001 0.05882353
  vertex 23.098078 2.160001 1.54
  vertex 23.098078 2.160001 2.7755576e-15
 endloop
endfacet
facet normal 0 1 -0
 outer loop
  vertex 8.098077 2.160001 0.05882353
  vertex 23.098078 2.160001 2.7755576e-15
  vertex 8.398077 2.160001 2.7755576e-15
 endloop
endfacet
facet normal -0.06170043 0.9980948 0
 outer loop
  vertex 2.5980773 1.820001 1
  vertex 2.5980773 1.820001 1.54
  vertex 3.298077 1.8632737 1
 endloop
endfacet
facet normal -0.061700415 0.99809474 2.003067e-08
 outer loop
  vertex 3.298077 1.8632737 1
  vertex 2.5980773 1.820001 1.54
  vertex 8.098077 2.160001 1.54
 endloop
endfacet
facet normal -0.061700407 0.99809474 0
 outer loop
  vertex 3.298077 1.8632737 1
  vertex 8.098077 2.160001 1.54
  vertex 8.098077 2.160001 0.05882353
 endloop
endfacet
facet normal -0 0 1
 outer loop
  vertex 8.098077 1.160001 1.54
  vertex 8.098077 2.160001 1.54
  vertex 2.5980773 1.500001 1.54
 endloop
endfacet
facet normal -0 0 1
 outer loop
  vertex 2.5980773 1.500001 1.54
  vertex 8.098077 2.160001 1.54
  vertex 2.5980773 1.820001 1.54
 endloop
endfacet
facet normal -0 0 1
 outer loop
  vertex 2.5980773 1.500001 1.54
  vertex 2.5980773 1.820001 1.54
  vertex 1e-06 0.320001 1.54
 endloop
endfacet
facet normal 0 0 1
 outer loop
  vertex 8.098077 1.160001 1.54
  vertex 23.098078 1.160001 1.54
  vertex 8.098077 2.160001 1.54
 endloop
endfacet
facet normal 0 0 1
 outer loop
  vertex 8.098077 2.160001 1.54
  vertex 23.098078 1.160001 1.54
  vertex 23.098078 2.160001 1.54
 endloop
endfacet
facet normal 0 -0 1
 outer loop
  vertex 1e-06 0.320001 1.54
  vertex 1e-06 1e-06 1.54
  vertex 2.5980773 1.500001 1.54
 endloop
endfacet
endsolid Volume
